<svg width="115" height="95" viewBox="0 0 115 95" fill="none" xmlns="http://www.w3.org/2000/svg">
<rect x="17.5479" y="15.3617" width="79.5489" height="57.322" rx="21.0572" fill="#FFCE48"/>
<rect x="17.5479" y="15.3617" width="79.5489" height="57.322" rx="21.0572" fill="url(#paint0_linear_115_222)" fill-opacity="0.6"/>
<path d="M22.416 41.0981C22.416 31.4701 30.2211 23.665 39.8491 23.665H73.6258C83.2539 23.665 91.0589 31.4701 91.0589 41.0981V41.0981C91.0589 50.7262 83.2539 58.5312 73.6258 58.5312H57.7949H39.8492C30.2211 58.5312 22.416 50.7262 22.416 41.0981V41.0981Z" fill="white"/>
<path d="M0 45.1928C0 36.4707 7.07067 29.4 15.7928 29.4H16.3777V60.9856H15.7928C7.07067 60.9856 0 53.9149 0 45.1928V45.1928Z" fill="black"/>
<path d="M114.645 45.1928C114.645 36.4707 107.574 29.4 98.8517 29.4H98.2668V60.9856H98.8517C107.574 60.9856 114.645 53.9149 114.645 45.1928V45.1928Z" fill="black"/>
<ellipse cx="36.6931" cy="38.0364" rx="9.17653" ry="8.98086" fill="black"/>
<ellipse cx="7.19151" cy="7.14403" rx="7.19151" ry="7.14403" transform="matrix(-0.814488 0.58018 -0.596761 -0.802419 46.9502 41.4542)" fill="black"/>
<ellipse cx="7.19151" cy="7.14403" rx="7.19151" ry="7.14403" transform="matrix(-0.814488 0.58018 -0.596761 -0.802419 46.9502 41.4542)" fill="url(#paint1_linear_115_222)" fill-opacity="0.34"/>
<ellipse cx="39.3559" cy="33.2341" rx="1.40078" ry="1.37092" fill="white"/>
<ellipse cx="72.7742" cy="38.5012" rx="9.17653" ry="8.98086" fill="black"/>
<ellipse cx="7.19151" cy="7.14403" rx="7.19151" ry="7.14403" transform="matrix(-0.814488 0.58018 -0.596761 -0.802419 83.0312 41.9187)" fill="black"/>
<ellipse cx="7.19151" cy="7.14403" rx="7.19151" ry="7.14403" transform="matrix(-0.814488 0.58018 -0.596761 -0.802419 83.0312 41.9187)" fill="url(#paint2_linear_115_222)" fill-opacity="0.34"/>
<ellipse cx="76.2465" cy="33.7686" rx="1.40078" ry="1.37092" fill="white"/>
<path d="M62.3201 38.44C60.8232 37.5714 54.8574 36.9262 51.075 38.205" stroke="black" stroke-width="1.87431" stroke-linecap="round"/>
<path d="M25.4671 38.6575C25.4671 42.5569 26.999 45.5815 29.4897 47.6505C32.002 49.7374 35.5652 50.9107 39.6836 50.9107C47.7208 50.9107 52.6804 45.0816 52.3693 38.7112C52.0504 32.1795 46.1147 24.9986 38.1515 24.9986C34.1199 24.9986 30.9806 26.4659 28.8394 28.8503C26.6859 31.2485 25.4671 34.6601 25.4671 38.6575Z" stroke="#101010" stroke-width="2.20231"/>
<path d="M61.0784 38.6574C61.0784 42.5568 62.6103 45.5814 65.1011 47.6504C67.6133 49.7373 71.1766 50.9106 75.2949 50.9106C83.3321 50.9106 88.2917 45.0815 87.9807 38.7111C87.6617 32.1794 81.7261 24.9985 73.7628 24.9985C69.7312 24.9985 66.5919 26.4658 64.4507 28.8503C62.2972 31.2484 61.0784 34.66 61.0784 38.6574Z" stroke="#101010" stroke-width="2.20231"/>
<path d="M53.418 47.3263C54.8012 50.4501 58.5496 50.4501 59.978 47.3263" stroke="black" stroke-width="1.21454" stroke-linecap="round"/>
<path d="M48.2734 20.5919C52.4837 9.27475 61.9678 -9.53996 66.2224 5.73815C70.477 21.0163 56.0292 22.0065 48.2734 20.5919Z" fill="#FFCE48"/>
<path d="M48.2734 20.5919C52.4837 9.27475 61.9678 -9.53996 66.2224 5.73815C70.477 21.0163 56.0292 22.0065 48.2734 20.5919Z" fill="#FFCE48"/>
<path d="M48.0908 19.7468C62.352 12.7603 88.4317 3.39434 78.6613 21.8223C68.8909 40.2502 54.21 28.1169 48.0908 19.7468Z" fill="#FFCE48"/>
<path d="M48.0908 19.7468C62.352 12.7603 88.4317 3.39434 78.6613 21.8223C68.8909 40.2502 54.21 28.1169 48.0908 19.7468Z" fill="url(#paint3_linear_115_222)" fill-opacity="0.27"/>
<circle cx="39.5" cy="87.5" r="4.5" fill="#FFCE48"/>
<circle cx="56.5" cy="87.5" r="7.5" fill="#FFCE48"/>
<circle cx="73.5" cy="87.5" r="4.5" fill="#FFCE48"/>
<defs>
<linearGradient id="paint0_linear_115_222" x1="57.3223" y1="42.1888" x2="57.3223" y2="72.6837" gradientUnits="userSpaceOnUse">
<stop stop-color="#FCBA04" stop-opacity="0"/>
<stop offset="1" stop-color="#FE7B00"/>
</linearGradient>
<linearGradient id="paint1_linear_115_222" x1="7.19151" y1="0" x2="7.19151" y2="14.2881" gradientUnits="userSpaceOnUse">
<stop stop-color="#ACACAC" stop-opacity="0"/>
<stop offset="0.701398" stop-color="#ACACAC"/>
</linearGradient>
<linearGradient id="paint2_linear_115_222" x1="7.19151" y1="0" x2="7.19151" y2="14.2881" gradientUnits="userSpaceOnUse">
<stop stop-color="#ACACAC" stop-opacity="0"/>
<stop offset="0.701398" stop-color="#ACACAC"/>
</linearGradient>
<linearGradient id="paint3_linear_115_222" x1="47.4711" y1="20.1246" x2="82.4902" y2="13.2422" gradientUnits="userSpaceOnUse">
<stop stop-color="#FCBA04"/>
<stop offset="1" stop-color="#FF7344"/>
</linearGradient>
</defs>
</svg>
