<svg width="495" height="493" viewBox="0 0 495 493" fill="none" xmlns="http://www.w3.org/2000/svg">
<path d="M177.676 419.131C226.209 376.897 220.519 327.3 209.988 311.585C205.269 305.082 200.021 307.465 194.85 336.588C190.029 363.738 173.611 382.955 161.862 387.687C161.134 385.879 156.402 374.13 145.556 378.498C142.845 379.59 140.146 385.929 144.502 391.528C91.8199 378.083 117.009 471.924 177.676 419.131Z" fill="#FFCE48"/>
<path d="M177.676 419.131C226.209 376.897 220.519 327.3 209.988 311.585C205.269 305.082 200.021 307.465 194.85 336.588C190.029 363.738 173.611 382.955 161.862 387.687C161.134 385.879 156.402 374.13 145.556 378.498C142.845 379.59 140.146 385.929 144.502 391.528C91.8199 378.083 117.009 471.924 177.676 419.131Z" fill="url(#paint0_linear_108_2)" fill-opacity="0.6"/>
<path d="M363.071 384C342.026 323.202 293.894 309.952 275.382 313.849C267.588 315.797 267.838 321.555 292.92 337.232C316.304 351.846 327.995 374.256 327.995 386.922C326.047 386.922 313.381 386.922 313.381 398.613C313.381 401.536 318.252 406.408 325.073 404.459C292.921 448.304 389.377 459.996 363.071 384Z" fill="#FFCE48"/>
<path d="M363.071 384C342.026 323.202 293.894 309.952 275.382 313.849C267.588 315.797 267.838 321.555 292.92 337.232C316.304 351.846 327.995 374.256 327.995 386.922C326.047 386.922 313.381 386.922 313.381 398.613C313.381 401.536 318.252 406.408 325.073 404.459C292.921 448.304 389.377 459.996 363.071 384Z" fill="url(#paint1_linear_108_2)" fill-opacity="0.6"/>
<path d="M245.109 465.133C245.109 497.747 233.274 491.766 218.802 491.766C174.854 491.766 192.495 494.689 192.703 465.133C192.703 432.519 189.963 392.386 204.434 392.386C218.906 392.386 245.109 366.076 245.109 465.133Z" fill="#FFCE48"/>
<path d="M245.109 465.133C245.109 497.747 233.274 491.766 218.802 491.766C174.854 491.766 192.495 494.689 192.703 465.133C192.703 432.519 189.963 392.386 204.434 392.386C218.906 392.386 245.109 366.076 245.109 465.133Z" fill="url(#paint2_linear_108_2)" fill-opacity="0.6"/>
<path d="M247.489 465.133C247.489 497.747 259.325 491.766 273.797 491.766C317.745 491.766 300.103 494.689 299.895 465.133C299.895 432.519 302.636 392.386 288.164 392.386C273.693 392.386 247.489 366.076 247.489 465.133Z" fill="#FFCE48"/>
<path d="M247.489 465.133C247.489 497.747 259.325 491.766 273.797 491.766C317.745 491.766 300.103 494.689 299.895 465.133C299.895 432.519 302.636 392.386 288.164 392.386C273.693 392.386 247.489 366.076 247.489 465.133Z" fill="url(#paint3_linear_108_2)" fill-opacity="0.6"/>
<path d="M300.104 357.068C300.104 394.197 311.795 424.296 244.568 424.296C177.341 424.296 189.032 394.197 189.032 357.068C189.032 319.939 213.897 278.148 244.568 278.148C275.24 278.148 300.104 319.939 300.104 357.068Z" fill="#FFCE48"/>
<path d="M300.104 357.068C300.104 394.197 311.795 424.296 244.568 424.296C177.341 424.296 189.032 394.197 189.032 357.068C189.032 319.939 213.897 278.148 244.568 278.148C275.24 278.148 300.104 319.939 300.104 357.068Z" fill="url(#paint4_linear_108_2)" fill-opacity="0.6"/>
<rect x="75.7629" y="66.3247" width="343.456" height="247.49" rx="90.9148" fill="#FFCE48"/>
<rect x="75.7629" y="66.3247" width="343.456" height="247.49" rx="90.9148" fill="url(#paint5_linear_108_2)" fill-opacity="0.6"/>
<path d="M96.7802 177.443C96.7802 135.874 130.479 102.175 172.049 102.175H317.881C359.45 102.175 393.149 135.874 393.149 177.443V177.443C393.149 219.013 359.45 252.711 317.881 252.711H249.53H172.049C130.479 252.711 96.7802 219.013 96.7802 177.443V177.443Z" fill="white"/>
<path d="M9.15527e-05 195.121C9.15527e-05 157.463 30.5281 126.935 68.1862 126.935H70.7116V263.307H68.1862C30.5281 263.307 9.15527e-05 232.779 9.15527e-05 195.121V195.121Z" fill="black"/>
<path d="M494.98 195.121C494.98 157.463 464.452 126.935 426.794 126.935H424.269V263.307H426.794C464.452 263.307 494.98 232.779 494.98 195.121V195.121Z" fill="black"/>
<ellipse cx="158.424" cy="164.223" rx="39.6201" ry="38.7753" fill="black"/>
<ellipse cx="31.0497" cy="30.8447" rx="31.0497" ry="30.8447" transform="matrix(-0.814488 0.58018 -0.596761 -0.802419 202.709 178.979)" fill="black"/>
<ellipse cx="31.0497" cy="30.8447" rx="31.0497" ry="30.8447" transform="matrix(-0.814488 0.58018 -0.596761 -0.802419 202.709 178.979)" fill="url(#paint6_linear_108_2)" fill-opacity="0.34"/>
<ellipse cx="169.918" cy="143.489" rx="6.04795" ry="5.91899" fill="white"/>
<ellipse cx="314.202" cy="166.23" rx="39.6201" ry="38.7753" fill="black"/>
<ellipse cx="31.0497" cy="30.8447" rx="31.0497" ry="30.8447" transform="matrix(-0.814488 0.58018 -0.596761 -0.802419 358.486 180.985)" fill="black"/>
<ellipse cx="31.0497" cy="30.8447" rx="31.0497" ry="30.8447" transform="matrix(-0.814488 0.58018 -0.596761 -0.802419 358.486 180.985)" fill="url(#paint7_linear_108_2)" fill-opacity="0.34"/>
<ellipse cx="329.194" cy="145.796" rx="6.04795" ry="5.91899" fill="white"/>
<path d="M269.065 165.965C262.603 162.215 236.845 159.43 220.514 164.951" stroke="black" stroke-width="8.09234" stroke-linecap="round"/>
<path d="M109.955 166.905C109.955 183.741 116.569 196.8 127.323 205.733C138.17 214.743 153.554 219.809 171.335 219.809C206.036 219.809 227.45 194.641 226.107 167.137C224.73 138.936 199.102 107.932 164.72 107.932C147.314 107.932 133.76 114.267 124.515 124.562C115.217 134.916 109.955 149.646 109.955 166.905Z" stroke="#101010" stroke-width="9.5085"/>
<path d="M263.71 166.905C263.71 183.741 270.324 196.8 281.078 205.733C291.924 214.743 307.309 219.809 325.09 219.809C359.791 219.809 381.204 194.641 379.861 167.137C378.484 138.936 352.857 107.932 318.475 107.932C301.068 107.932 287.514 114.267 278.27 124.562C268.972 134.916 263.71 149.646 263.71 166.905Z" stroke="#101010" stroke-width="9.5085"/>
<path d="M230.632 204.332C236.604 217.819 252.788 217.819 258.955 204.332" stroke="black" stroke-width="5.24381" stroke-linecap="round"/>
<path d="M208.421 88.9062C226.599 40.044 267.548 -41.1893 285.917 24.7746C304.286 90.7385 241.907 95.014 208.421 88.9062Z" fill="#FFCE48"/>
<path d="M208.421 88.9062C226.599 40.044 267.548 -41.1893 285.917 24.7746C304.286 90.7385 241.907 95.014 208.421 88.9062Z" fill="#FFCE48"/>
<path d="M207.634 85.2578C269.208 55.0934 381.808 14.6554 339.624 94.2189C297.44 173.782 234.054 121.396 207.634 85.2578Z" fill="#FFCE48"/>
<path d="M207.634 85.2578C269.208 55.0934 381.808 14.6554 339.624 94.2189C297.44 173.782 234.054 121.396 207.634 85.2578Z" fill="url(#paint8_linear_108_2)" fill-opacity="0.27"/>
<path d="M237.727 308.796C241.826 311.808 241.826 317.933 237.727 320.945L220.681 333.471C215.702 337.129 208.679 333.574 208.679 327.396L208.679 302.345C208.679 296.167 215.702 292.612 220.681 296.27L237.727 308.796Z" fill="black"/>
<path d="M237.727 308.796C241.826 311.808 241.826 317.933 237.727 320.945L220.681 333.471C215.702 337.129 208.679 333.574 208.679 327.396L208.679 302.345C208.679 296.167 215.702 292.612 220.681 296.27L237.727 308.796Z" fill="url(#paint9_linear_108_2)" fill-opacity="0.27"/>
<path d="M252.754 308.796C248.654 311.808 248.654 317.933 252.754 320.945L269.8 333.471C274.778 337.129 281.802 333.574 281.802 327.396L281.802 302.345C281.802 296.167 274.778 292.612 269.8 296.27L252.754 308.796Z" fill="black"/>
<path d="M252.754 308.796C248.654 311.808 248.654 317.933 252.754 320.945L269.8 333.471C274.778 337.129 281.802 333.574 281.802 327.396L281.802 302.345C281.802 296.167 274.778 292.612 269.8 296.27L252.754 308.796Z" fill="url(#paint10_linear_108_2)" fill-opacity="0.27"/>
<path d="M235.441 309.249C235.441 306.34 238.147 304.187 240.981 304.841L244.224 305.59C244.893 305.744 245.588 305.744 246.258 305.59L249.5 304.841C252.335 304.187 255.041 306.34 255.041 309.249V319.394C255.041 321.892 253.015 323.917 250.517 323.917H239.964C237.466 323.917 235.441 321.892 235.441 319.394V309.249Z" fill="black"/>
<path d="M235.441 309.249C235.441 306.34 238.147 304.187 240.981 304.841L244.224 305.59C244.893 305.744 245.588 305.744 246.258 305.59L249.5 304.841C252.335 304.187 255.041 306.34 255.041 309.249V319.394C255.041 321.892 253.015 323.917 250.517 323.917H239.964C237.466 323.917 235.441 321.892 235.441 319.394V309.249Z" fill="url(#paint11_linear_108_2)" fill-opacity="0.27"/>
<defs>
<linearGradient id="paint0_linear_108_2" x1="226.965" y1="352.065" x2="110.082" y2="399.138" gradientUnits="userSpaceOnUse">
<stop stop-color="#FCBA04" stop-opacity="0"/>
<stop offset="1" stop-color="#FE7B00"/>
</linearGradient>
<linearGradient id="paint1_linear_108_2" x1="319.274" y1="313.224" x2="319.274" y2="439.23" gradientUnits="userSpaceOnUse">
<stop stop-color="#FCBA04" stop-opacity="0"/>
<stop offset="1" stop-color="#FE7B00"/>
</linearGradient>
<linearGradient id="paint2_linear_108_2" x1="217.071" y1="389.22" x2="217.071" y2="492.197" gradientUnits="userSpaceOnUse">
<stop stop-color="#FCBA04" stop-opacity="0"/>
<stop offset="1" stop-color="#FE7B00"/>
</linearGradient>
<linearGradient id="paint3_linear_108_2" x1="275.528" y1="389.22" x2="275.528" y2="492.197" gradientUnits="userSpaceOnUse">
<stop stop-color="#FCBA04" stop-opacity="0"/>
<stop offset="1" stop-color="#FE7B00"/>
</linearGradient>
<linearGradient id="paint4_linear_108_2" x1="244.568" y1="278.148" x2="244.568" y2="424.296" gradientUnits="userSpaceOnUse">
<stop stop-color="#FCBA04" stop-opacity="0"/>
<stop offset="1" stop-color="#FE7B00"/>
</linearGradient>
<linearGradient id="paint5_linear_108_2" x1="247.491" y1="182.152" x2="247.491" y2="313.815" gradientUnits="userSpaceOnUse">
<stop stop-color="#FCBA04" stop-opacity="0"/>
<stop offset="1" stop-color="#FE7B00"/>
</linearGradient>
<linearGradient id="paint6_linear_108_2" x1="31.0497" y1="0" x2="31.0497" y2="61.6893" gradientUnits="userSpaceOnUse">
<stop stop-color="#ACACAC" stop-opacity="0"/>
<stop offset="0.701398" stop-color="#ACACAC"/>
</linearGradient>
<linearGradient id="paint7_linear_108_2" x1="31.0497" y1="0" x2="31.0497" y2="61.6893" gradientUnits="userSpaceOnUse">
<stop stop-color="#ACACAC" stop-opacity="0"/>
<stop offset="0.701398" stop-color="#ACACAC"/>
</linearGradient>
<linearGradient id="paint8_linear_108_2" x1="204.959" y1="86.889" x2="356.155" y2="57.174" gradientUnits="userSpaceOnUse">
<stop stop-color="#FCBA04"/>
<stop offset="1" stop-color="#FF7344"/>
</linearGradient>
<linearGradient id="paint9_linear_108_2" x1="245.994" y1="314.87" x2="196.24" y2="314.87" gradientUnits="userSpaceOnUse">
<stop stop-opacity="0"/>
<stop offset="1" stop-color="white"/>
</linearGradient>
<linearGradient id="paint10_linear_108_2" x1="244.487" y1="314.87" x2="294.24" y2="314.87" gradientUnits="userSpaceOnUse">
<stop stop-opacity="0"/>
<stop offset="1" stop-color="white"/>
</linearGradient>
<linearGradient id="paint11_linear_108_2" x1="245.241" y1="303.563" x2="245.241" y2="323.917" gradientUnits="userSpaceOnUse">
<stop stop-opacity="0"/>
<stop offset="1" stop-color="white"/>
</linearGradient>
</defs>
</svg>
